HIERARCHY
ROOT Hips
{
	OFFSET 0.00000 0.00000 0.00000
	CHANNELS 6 Xposition Yposition Zposition Zrotation Yrotation Xrotation 
	JOINT LHipJoint
	{
		OFFSET 0 0 0
		CHANNELS 3 Zrotation Yrotation Xrotation
		JOINT LeftUpLeg
		{
			OFFSET 2.36090 -1.39315 1.24752
			CHANNELS 3 Zrotation Yrotation Xrotation
			JOINT LeftLeg
			{
				OFFSET 2.06810 -5.68207 0.00000
				CHANNELS 3 Zrotation Yrotation Xrotation
				JOINT LeftFoot
				{
					OFFSET 2.46631 -6.77613 0.00000
					CHANNELS 3 Zrotation Yrotation Xrotation
					JOINT LeftToeBase
					{
						OFFSET 0.26031 -0.71520 1.99545
						CHANNELS 3 Zrotation Yrotation Xrotation
						End Site
						{
							OFFSET 0.00000 -0.00000 1.05957
						}
					}
				}
			}
		}
	}
	JOINT RHipJoint
	{
		OFFSET 0 0 0
		CHANNELS 3 Zrotation Yrotation Xrotation
		JOINT RightUpLeg
		{
			OFFSET -2.25243 -1.39315 1.24752
			CHANNELS 3 Zrotation Yrotation Xrotation
			JOINT RightLeg
			{
				OFFSET -2.17343 -5.97145 0.00000
				CHANNELS 3 Zrotation Yrotation Xrotation
				JOINT RightFoot
				{
					OFFSET -2.52372 -6.93386 0.00000
					CHANNELS 3 Zrotation Yrotation Xrotation
					JOINT RightToeBase
					{
						OFFSET -0.22538 -0.61923 2.11447
						CHANNELS 3 Zrotation Yrotation Xrotation
						End Site
						{
							OFFSET -0.00000 -0.00000 1.10506
						}
					}
				}
			}
		}
	}
	JOINT LowerBack
	{
		OFFSET 0 0 0
		CHANNELS 3 Zrotation Yrotation Xrotation
		JOINT Spine
		{
			OFFSET 0.01594 2.13103 0.08007
			CHANNELS 3 Zrotation Yrotation Xrotation
			JOINT Spine1
			{
				OFFSET 0.01393 2.09723 0.18338
				CHANNELS 3 Zrotation Yrotation Xrotation
				JOINT Neck
				{
					OFFSET 0 0 0
					CHANNELS 3 Zrotation Yrotation Xrotation
					JOINT Neck1
					{
						OFFSET 0.05351 1.38915 0.32494
						CHANNELS 3 Zrotation Yrotation Xrotation
						JOINT Head
						{
							OFFSET 0.00711 1.45992 -0.21666
							CHANNELS 3 Zrotation Yrotation Xrotation
							End Site
							{
								OFFSET -0.00433 1.47702 -0.11056
							}
						}
					}
				}
				JOINT LeftShoulder
				{
					OFFSET 0 0 0
					CHANNELS 3 Zrotation Yrotation Xrotation
					JOINT LeftArm
					{
						OFFSET 2.87198 0.92249 0.11132
						CHANNELS 3 Zrotation Yrotation Xrotation
						JOINT LeftForeArm
						{
							OFFSET 5.52731 -0.00000 0.00000
							CHANNELS 3 Zrotation Yrotation Xrotation
							JOINT LeftHand
							{
								OFFSET 3.11059 -0.00000 0.00000
								CHANNELS 3 Zrotation Yrotation Xrotation
								JOINT LeftFingerBase
								{
									OFFSET 0 0 0
									CHANNELS 3 Zrotation Yrotation Xrotation
									JOINT LeftHandIndex1
									{
										OFFSET 0.41963 -0.00000 0.00000
										CHANNELS 3 Zrotation Yrotation Xrotation
										End Site
										{
											OFFSET 0.33831 -0.00000 0.00000
										}
									}
								}
								JOINT LThumb
								{
									OFFSET 0 0 0
									CHANNELS 3 Zrotation Yrotation Xrotation
									End Site
									{
										OFFSET 0.34348 -0.00000 0.34348
									}
								}
							}
						}
					}
				}
				JOINT RightShoulder
				{
					OFFSET 0 0 0
					CHANNELS 3 Zrotation Yrotation Xrotation
					JOINT RightArm
					{
						OFFSET -2.94710 0.68072 0.32187
						CHANNELS 3 Zrotation Yrotation Xrotation
						JOINT RightForeArm
						{
							OFFSET -5.25396 -0.00000 -0.00000
							CHANNELS 3 Zrotation Yrotation Xrotation
							JOINT RightHand
							{
								OFFSET -3.10567 -0.00000 0.00000
								CHANNELS 3 Zrotation Yrotation Xrotation
								JOINT RightFingerBase
								{
									OFFSET 0 0 0
									CHANNELS 3 Zrotation Yrotation Xrotation
									JOINT RightHandIndex1
									{
										OFFSET -0.49868 -0.00000 0.00000
										CHANNELS 3 Zrotation Yrotation Xrotation
										End Site
										{
											OFFSET -0.40204 -0.00000 0.00000
										}
									}
								}
								JOINT RThumb
								{
									OFFSET 0 0 0
									CHANNELS 3 Zrotation Yrotation Xrotation
									End Site
									{
										OFFSET -0.40818 -0.00000 0.40818
									}
								}
							}
						}
					}
				}
			}
		}
	}
}
MOTION
Frames: 7
Frame Time: .0083333
-0.3195 16.3564 -23.6241 -2.4814 -3.9537 22.1382 0.0000 0.0000 0.0000 -15.3539 -20.9375 -31.2870 1.8857 8.6238 24.6256 0.2224 -0.2283 -8.8290 0.9734 -6.2810 -17.6019 0.0000 0.0000 0.0000 16.7460 22.7259 -38.7011 -10.6091 -17.7384 61.5056 -0.4816 -2.8146 -14.4403 -0.6340 5.0945 -14.1782 -8.0376 -1.7100 -12.8259 -1.0049 -1.3357 -6.0656 3.2907 -0.5389 0.9319 3.4970 -0.1742 -21.9272 2.6892 -2.1880 22.3132 0.0540 -0.3476 10.8431 0.0000 0.0000 0.0000 -78.7994 -2.6206 45.0925 17.7995 -27.8997 -4.4550 -0.0000 0.0000 -44.3442 21.1895 -5.2289 -2.0234 -7.1250 0.0000 -0.0000 -4.0970 24.3752 2.0459 0.0000 0.0000 0.0000 85.4509 -18.9174 15.1573 -20.3564 31.0694 -5.7141 0.0000 -0.0000 -17.2218 -12.9384 -20.5844 4.6179 7.1250 -0.0000 -0.0000 15.5246 -50.4022 -2.1113
-0.3224 16.3549 -23.6756 -2.4937 -3.9160 22.1289 0.0000 0.0000 0.0000 -15.2308 -20.9808 -31.5504 1.8948 8.6435 24.6862 0.2144 -0.2869 -8.6486 0.9592 -6.2363 -17.4717 0.0000 0.0000 0.0000 16.9735 22.5920 -37.7602 -10.6045 -17.7361 61.4905 -0.4782 -2.6447 -14.2965 -0.6620 5.2038 -14.4906 -7.8151 -1.5699 -13.0038 -1.0720 -1.1575 -6.0786 3.1180 -0.4564 0.9910 3.1900 -0.3824 -21.8729 2.9895 -2.4497 22.2553 0.1727 -0.4569 10.8192 -0.0000 -0.0000 0.0000 -78.6758 -2.3419 45.1980 17.3145 -27.2705 -4.2304 -0.0000 0.0000 -44.1696 21.1712 -4.8942 -1.8925 -7.1250 0.0000 -0.0000 -4.1139 24.7335 2.0202 -0.0000 -0.0000 0.0000 85.4082 -18.8701 15.2659 -20.6011 31.3598 -5.8410 0.0000 -0.0000 -17.1882 -13.1563 -20.5340 4.6871 7.1250 -0.0000 -0.0000 15.2963 -50.3873 -2.0732
-0.3258 16.3523 -23.7277 -2.4918 -3.8898 22.1157 0.0000 0.0000 0.0000 -15.1271 -21.0130 -31.8215 1.9047 8.6646 24.7518 0.2066 -0.3496 -8.4664 0.9496 -6.2059 -17.3830 0.0000 0.0000 0.0000 17.1774 22.4681 -36.7869 -10.5603 -17.7131 61.3453 -0.4722 -2.4852 -14.1258 -0.7023 5.3566 -14.9285 -7.6054 -1.4299 -13.1750 -1.1365 -0.9792 -6.0885 2.9559 -0.3735 1.0515 2.8632 -0.5972 -21.8247 3.2916 -2.7150 22.2011 0.2947 -0.5692 10.7999 0.0000 -0.0000 0.0000 -78.5536 -2.0639 45.2569 16.8367 -26.6420 -4.0139 -0.0000 0.0000 -43.9108 21.1921 -4.4314 -1.7159 -7.1250 0.0000 -0.0000 -4.1038 25.2273 1.9681 0.0000 -0.0000 0.0000 85.3416 -18.8053 15.3995 -20.8382 31.6390 -5.9648 0.0000 -0.0000 -17.1750 -13.3420 -20.4863 4.7449 7.1250 -0.0000 -0.0000 15.0999 -50.3699 -2.0390
-0.3297 16.3488 -23.7799 -2.4751 -3.8708 22.0886 0.0000 0.0000 0.0000 -15.0460 -21.0354 -32.0803 1.9147 8.6860 24.8180 0.1989 -0.4172 -8.2848 0.9408 -6.1778 -17.3013 0.0000 0.0000 0.0000 17.3658 22.3496 -35.7635 -10.4760 -17.6690 61.0677 -0.4648 -2.3275 -13.9374 -0.7483 5.5253 -15.4130 -7.4029 -1.2884 -13.3323 -1.2056 -0.8000 -6.0950 2.7939 -0.2900 1.1092 2.5255 -0.8143 -21.7810 3.6027 -2.9831 22.1540 0.4212 -0.6825 10.7864 0.0000 0.0000 0.0000 -78.4191 -1.7776 45.2808 16.3712 -26.0214 -3.8073 -0.0000 0.0000 -43.5916 21.2554 -3.8454 -1.4944 -7.1250 0.0000 -0.0000 -4.0651 25.8520 1.8902 0.0000 0.0000 0.0000 85.2644 -18.7292 15.5512 -21.0633 31.9022 -6.0834 0.0000 -0.0000 -17.1831 -13.4859 -20.3980 4.7780 7.1250 -0.0000 -0.0000 14.9269 -50.3061 -1.9909
-0.3345 16.3441 -23.8329 -2.4349 -3.8364 22.0476 0.0000 0.0000 0.0000 -14.9929 -21.0555 -32.3282 1.9236 8.7051 24.8770 0.1909 -0.5044 -8.0868 0.9317 -6.1488 -17.2167 0.0000 0.0000 0.0000 17.5382 22.2188 -34.6945 -10.3517 -17.6029 60.6576 -0.4554 -2.1612 -13.7185 -0.7838 5.6519 -15.7777 -7.2054 -1.1480 -13.4722 -1.2865 -0.6233 -6.0976 2.6227 -0.2077 1.1635 2.2079 -1.0532 -21.7365 3.8694 -3.2768 22.1069 0.5245 -0.8115 10.7736 0.0000 0.0000 0.0000 -78.2695 -1.4646 45.2171 15.9439 -25.4445 -3.6218 -0.0000 0.0000 -43.1356 21.3619 -3.2121 -1.2555 -7.1250 0.0000 -0.0000 -3.9962 26.5271 1.7948 0.0000 0.0000 0.0000 85.1895 -18.6480 15.7275 -21.2850 32.1596 -6.2010 0.0000 -0.0000 -17.2354 -13.6417 -20.3374 4.8214 7.1250 -0.0000 -0.0000 14.7542 -50.2711 -1.9540
-0.3398 16.3386 -23.8857 -2.3755 -3.7948 21.9884 0.0000 0.0000 0.0000 -14.9670 -21.0729 -32.5529 1.9319 8.7228 24.9319 0.1830 -0.6033 -7.8883 0.9242 -6.1247 -17.1466 0.0000 0.0000 0.0000 17.7012 22.0781 -33.5670 -10.1859 -17.5131 60.1079 -0.4429 -1.9918 -13.4546 -0.8039 5.7225 -15.9813 -7.0144 -1.0113 -13.5982 -1.3723 -0.4523 -6.0992 2.4496 -0.1280 1.2132 1.8902 -1.2976 -21.6777 4.1260 -3.5756 22.0651 0.6233 -0.9442 10.7618 0.0000 -0.0000 0.0000 -78.1096 -1.1177 45.0913 15.5459 -24.9010 -3.4525 -0.0000 0.0000 -42.6113 21.4843 -2.5879 -1.0181 -7.1250 0.0000 -0.0000 -3.9166 27.1934 1.6975 0.0000 -0.0000 0.0000 85.0992 -18.5713 15.9437 -21.4973 32.4042 -6.3143 0.0000 -0.0000 -17.3228 -13.7697 -20.2162 4.8405 7.1250 -0.0000 -0.0000 14.5837 -50.1721 -1.8945
-0.3460 16.3322 -23.9375 -2.2938 -3.7346 21.8954 0.0000 0.0000 0.0000 -14.9752 -21.0922 -32.7308 1.9397 8.7393 24.9833 0.1756 -0.7165 -7.6923 0.9152 -6.0954 -17.0616 0.0000 0.0000 0.0000 17.8647 21.9098 -32.3522 -9.9778 -17.3974 59.4143 -0.4298 -1.8392 -13.1904 -0.8139 5.7569 -16.0807 -6.8309 -0.8813 -13.7062 -1.4635 -0.2906 -6.0932 2.2743 -0.0529 1.2636 1.5729 -1.5486 -21.5982 4.3715 -3.8807 22.0254 0.7173 -1.0816 10.7487 -0.0000 0.0000 0.0000 -77.9383 -0.7428 44.9158 15.1751 -24.3895 -3.2979 -0.0000 0.0000 -42.0490 21.6016 -1.9794 -0.7835 -7.1250 0.0000 -0.0000 -3.8421 27.8443 1.6061 -0.0000 0.0000 0.0000 84.9990 -18.4906 16.1811 -21.6919 32.6271 -6.4189 0.0000 -0.0000 -17.4194 -13.8895 -20.0687 4.8501 7.1250 -0.0000 -0.0000 14.4115 -50.0458 -1.8259
